<mxfile host="app.diagrams.net" modified="2023-06-27T08:07:38.370Z" agent="Mozilla/5.0 (Macintosh; Intel Mac OS X 10_15_7) AppleWebKit/537.36 (KHTML, like Gecko) Chrome/114.0.0.0 Safari/537.36" etag="E8kQe06uks6nNY2DzzaG" version="21.5.1" type="github">
  <diagram name="第 1 页" id="T7KggxuoEruzN0f5po2e">
    <mxGraphModel dx="954" dy="591" grid="1" gridSize="10" guides="1" tooltips="1" connect="1" arrows="1" fold="1" page="1" pageScale="1" pageWidth="1169" pageHeight="827" math="0" shadow="0">
      <root>
        <mxCell id="0" />
        <mxCell id="1" parent="0" />
        <mxCell id="cqJHQV9-dRMsiJILZrJO-1" value="YApi" style="rounded=0;whiteSpace=wrap;html=1;" vertex="1" parent="1">
          <mxGeometry x="270" y="120" width="120" height="60" as="geometry" />
        </mxCell>
        <mxCell id="cqJHQV9-dRMsiJILZrJO-2" value="swagger.json" style="rounded=0;whiteSpace=wrap;html=1;" vertex="1" parent="1">
          <mxGeometry x="10" y="290" width="120" height="60" as="geometry" />
        </mxCell>
        <mxCell id="cqJHQV9-dRMsiJILZrJO-6" style="edgeStyle=orthogonalEdgeStyle;rounded=0;orthogonalLoop=1;jettySize=auto;html=1;entryX=0.75;entryY=1;entryDx=0;entryDy=0;" edge="1" parent="1" source="cqJHQV9-dRMsiJILZrJO-3" target="cqJHQV9-dRMsiJILZrJO-1">
          <mxGeometry relative="1" as="geometry">
            <mxPoint x="300" y="220" as="targetPoint" />
            <Array as="points">
              <mxPoint x="490" y="200" />
            </Array>
          </mxGeometry>
        </mxCell>
        <mxCell id="cqJHQV9-dRMsiJILZrJO-7" style="edgeStyle=orthogonalEdgeStyle;rounded=0;orthogonalLoop=1;jettySize=auto;html=1;entryX=0.5;entryY=1;entryDx=0;entryDy=0;" edge="1" parent="1">
          <mxGeometry relative="1" as="geometry">
            <mxPoint x="490" y="250" as="sourcePoint" />
            <mxPoint x="620" y="140" as="targetPoint" />
            <Array as="points">
              <mxPoint x="490" y="200" />
              <mxPoint x="621" y="200" />
            </Array>
          </mxGeometry>
        </mxCell>
        <mxCell id="cqJHQV9-dRMsiJILZrJO-3" value="验证返回值是否符合json schema" style="rounded=0;whiteSpace=wrap;html=1;" vertex="1" parent="1">
          <mxGeometry x="415" y="290" width="170" height="60" as="geometry" />
        </mxCell>
        <mxCell id="cqJHQV9-dRMsiJILZrJO-5" value="测试服务器" style="rounded=0;whiteSpace=wrap;html=1;" vertex="1" parent="1">
          <mxGeometry x="570" y="120" width="120" height="60" as="geometry" />
        </mxCell>
        <mxCell id="cqJHQV9-dRMsiJILZrJO-8" value="前端项目" style="rounded=0;whiteSpace=wrap;html=1;" vertex="1" parent="1">
          <mxGeometry x="890" y="290" width="120" height="60" as="geometry" />
        </mxCell>
        <mxCell id="cqJHQV9-dRMsiJILZrJO-12" value="" style="endArrow=none;dashed=1;html=1;dashPattern=1 3;strokeWidth=2;rounded=0;" edge="1" parent="1">
          <mxGeometry width="50" height="50" relative="1" as="geometry">
            <mxPoint x="870" y="430" as="sourcePoint" />
            <mxPoint x="870" y="110" as="targetPoint" />
            <Array as="points">
              <mxPoint x="870" y="270" />
            </Array>
          </mxGeometry>
        </mxCell>
        <mxCell id="cqJHQV9-dRMsiJILZrJO-13" value="" style="endArrow=classic;html=1;rounded=0;entryX=0;entryY=0.5;entryDx=0;entryDy=0;" edge="1" parent="1" source="cqJHQV9-dRMsiJILZrJO-3" target="cqJHQV9-dRMsiJILZrJO-8">
          <mxGeometry width="50" height="50" relative="1" as="geometry">
            <mxPoint x="510" y="370" as="sourcePoint" />
            <mxPoint x="580.7106781186548" y="320" as="targetPoint" />
          </mxGeometry>
        </mxCell>
        <mxCell id="cqJHQV9-dRMsiJILZrJO-14" value="修改前端项目类型定义与使用处" style="text;strokeColor=none;fillColor=none;html=1;fontSize=12;fontStyle=0;verticalAlign=middle;align=center;strokeWidth=0;imageHeight=22;imageWidth=24;" vertex="1" parent="1">
          <mxGeometry x="685" y="280" width="100" height="40" as="geometry" />
        </mxCell>
        <mxCell id="cqJHQV9-dRMsiJILZrJO-16" value="YApi" style="rounded=0;whiteSpace=wrap;html=1;" vertex="1" parent="1">
          <mxGeometry x="420" y="450" width="120" height="60" as="geometry" />
        </mxCell>
        <mxCell id="cqJHQV9-dRMsiJILZrJO-19" style="edgeStyle=orthogonalEdgeStyle;rounded=0;orthogonalLoop=1;jettySize=auto;html=1;entryX=0.5;entryY=1;entryDx=0;entryDy=0;" edge="1" parent="1" target="cqJHQV9-dRMsiJILZrJO-16">
          <mxGeometry relative="1" as="geometry">
            <mxPoint x="500" y="530" as="targetPoint" />
            <mxPoint x="625" y="600" as="sourcePoint" />
          </mxGeometry>
        </mxCell>
        <mxCell id="cqJHQV9-dRMsiJILZrJO-20" style="edgeStyle=orthogonalEdgeStyle;rounded=0;orthogonalLoop=1;jettySize=auto;html=1;entryX=0.5;entryY=1;entryDx=0;entryDy=0;" edge="1" parent="1" target="cqJHQV9-dRMsiJILZrJO-22">
          <mxGeometry relative="1" as="geometry">
            <mxPoint x="625" y="600" as="sourcePoint" />
          </mxGeometry>
        </mxCell>
        <mxCell id="cqJHQV9-dRMsiJILZrJO-22" value="测试服务器" style="rounded=0;whiteSpace=wrap;html=1;" vertex="1" parent="1">
          <mxGeometry x="665" y="450" width="120" height="60" as="geometry" />
        </mxCell>
        <mxCell id="cqJHQV9-dRMsiJILZrJO-27" value="" style="edgeStyle=orthogonalEdgeStyle;rounded=0;orthogonalLoop=1;jettySize=auto;html=1;" edge="1" parent="1" source="cqJHQV9-dRMsiJILZrJO-23" target="cqJHQV9-dRMsiJILZrJO-26">
          <mxGeometry relative="1" as="geometry" />
        </mxCell>
        <mxCell id="cqJHQV9-dRMsiJILZrJO-23" value="前端项目" style="rounded=0;whiteSpace=wrap;html=1;" vertex="1" parent="1">
          <mxGeometry x="10" y="640" width="120" height="60" as="geometry" />
        </mxCell>
        <mxCell id="cqJHQV9-dRMsiJILZrJO-29" value="" style="edgeStyle=orthogonalEdgeStyle;rounded=0;orthogonalLoop=1;jettySize=auto;html=1;" edge="1" parent="1" source="cqJHQV9-dRMsiJILZrJO-26" target="cqJHQV9-dRMsiJILZrJO-28">
          <mxGeometry relative="1" as="geometry" />
        </mxCell>
        <mxCell id="cqJHQV9-dRMsiJILZrJO-26" value="根据类型定义，生成zod schema" style="rounded=0;whiteSpace=wrap;html=1;" vertex="1" parent="1">
          <mxGeometry x="190" y="640" width="120" height="60" as="geometry" />
        </mxCell>
        <mxCell id="cqJHQV9-dRMsiJILZrJO-35" value="" style="edgeStyle=orthogonalEdgeStyle;rounded=0;orthogonalLoop=1;jettySize=auto;html=1;" edge="1" parent="1" source="cqJHQV9-dRMsiJILZrJO-28" target="cqJHQV9-dRMsiJILZrJO-34">
          <mxGeometry relative="1" as="geometry" />
        </mxCell>
        <mxCell id="cqJHQV9-dRMsiJILZrJO-28" value="写单元测试" style="rounded=0;whiteSpace=wrap;html=1;" vertex="1" parent="1">
          <mxGeometry x="370" y="640" width="120" height="60" as="geometry" />
        </mxCell>
        <mxCell id="cqJHQV9-dRMsiJILZrJO-31" value="" style="edgeStyle=orthogonalEdgeStyle;rounded=0;orthogonalLoop=1;jettySize=auto;html=1;entryX=0;entryY=0.5;entryDx=0;entryDy=0;" edge="1" parent="1" source="cqJHQV9-dRMsiJILZrJO-2" target="cqJHQV9-dRMsiJILZrJO-30">
          <mxGeometry relative="1" as="geometry">
            <mxPoint x="130" y="320" as="sourcePoint" />
            <mxPoint x="340" y="320" as="targetPoint" />
          </mxGeometry>
        </mxCell>
        <mxCell id="cqJHQV9-dRMsiJILZrJO-33" value="" style="edgeStyle=orthogonalEdgeStyle;rounded=0;orthogonalLoop=1;jettySize=auto;html=1;" edge="1" parent="1" source="cqJHQV9-dRMsiJILZrJO-30" target="cqJHQV9-dRMsiJILZrJO-3">
          <mxGeometry relative="1" as="geometry" />
        </mxCell>
        <mxCell id="cqJHQV9-dRMsiJILZrJO-30" value="生成 ts 类型定义和测试用例" style="rounded=0;whiteSpace=wrap;html=1;" vertex="1" parent="1">
          <mxGeometry x="185" y="290" width="170" height="60" as="geometry" />
        </mxCell>
        <mxCell id="cqJHQV9-dRMsiJILZrJO-36" style="edgeStyle=orthogonalEdgeStyle;rounded=0;orthogonalLoop=1;jettySize=auto;html=1;exitX=0.5;exitY=0;exitDx=0;exitDy=0;" edge="1" parent="1" source="cqJHQV9-dRMsiJILZrJO-34">
          <mxGeometry relative="1" as="geometry">
            <mxPoint x="625" y="600" as="targetPoint" />
          </mxGeometry>
        </mxCell>
        <mxCell id="cqJHQV9-dRMsiJILZrJO-37" style="edgeStyle=orthogonalEdgeStyle;rounded=0;orthogonalLoop=1;jettySize=auto;html=1;entryX=0.5;entryY=1;entryDx=0;entryDy=0;" edge="1" parent="1" source="cqJHQV9-dRMsiJILZrJO-34" target="cqJHQV9-dRMsiJILZrJO-23">
          <mxGeometry relative="1" as="geometry">
            <Array as="points">
              <mxPoint x="630" y="760" />
              <mxPoint x="70" y="760" />
            </Array>
          </mxGeometry>
        </mxCell>
        <mxCell id="cqJHQV9-dRMsiJILZrJO-38" value="修改前端项目类型定义与使用处" style="edgeLabel;html=1;align=center;verticalAlign=middle;resizable=0;points=[];" vertex="1" connectable="0" parent="cqJHQV9-dRMsiJILZrJO-37">
          <mxGeometry x="-0.16" y="1" relative="1" as="geometry">
            <mxPoint x="-49" y="-1" as="offset" />
          </mxGeometry>
        </mxCell>
        <mxCell id="cqJHQV9-dRMsiJILZrJO-34" value="验证返回值是否符合zod schema" style="rounded=0;whiteSpace=wrap;html=1;" vertex="1" parent="1">
          <mxGeometry x="540" y="640" width="170" height="60" as="geometry" />
        </mxCell>
        <mxCell id="cqJHQV9-dRMsiJILZrJO-55" style="edgeStyle=orthogonalEdgeStyle;rounded=0;orthogonalLoop=1;jettySize=auto;html=1;" edge="1" parent="1" source="cqJHQV9-dRMsiJILZrJO-41">
          <mxGeometry relative="1" as="geometry">
            <mxPoint x="60" y="1028" as="targetPoint" />
            <Array as="points">
              <mxPoint x="60" y="1028" />
            </Array>
          </mxGeometry>
        </mxCell>
        <mxCell id="cqJHQV9-dRMsiJILZrJO-41" value="YApi" style="rounded=0;whiteSpace=wrap;html=1;" vertex="1" parent="1">
          <mxGeometry x="20" y="840" width="120" height="60" as="geometry" />
        </mxCell>
        <mxCell id="cqJHQV9-dRMsiJILZrJO-42" style="edgeStyle=orthogonalEdgeStyle;rounded=0;orthogonalLoop=1;jettySize=auto;html=1;entryX=1;entryY=0.5;entryDx=0;entryDy=0;" edge="1" parent="1" target="cqJHQV9-dRMsiJILZrJO-41">
          <mxGeometry relative="1" as="geometry">
            <mxPoint x="520" y="920" as="targetPoint" />
            <mxPoint x="645" y="990" as="sourcePoint" />
            <Array as="points">
              <mxPoint x="645" y="991" />
              <mxPoint x="440" y="991" />
              <mxPoint x="440" y="870" />
            </Array>
          </mxGeometry>
        </mxCell>
        <mxCell id="cqJHQV9-dRMsiJILZrJO-43" style="edgeStyle=orthogonalEdgeStyle;rounded=0;orthogonalLoop=1;jettySize=auto;html=1;entryX=0.5;entryY=1;entryDx=0;entryDy=0;" edge="1" parent="1" target="cqJHQV9-dRMsiJILZrJO-44">
          <mxGeometry relative="1" as="geometry">
            <mxPoint x="645" y="990" as="sourcePoint" />
          </mxGeometry>
        </mxCell>
        <mxCell id="cqJHQV9-dRMsiJILZrJO-44" value="测试服务器" style="rounded=0;whiteSpace=wrap;html=1;" vertex="1" parent="1">
          <mxGeometry x="800" y="840" width="120" height="60" as="geometry" />
        </mxCell>
        <mxCell id="cqJHQV9-dRMsiJILZrJO-45" value="" style="edgeStyle=orthogonalEdgeStyle;rounded=0;orthogonalLoop=1;jettySize=auto;html=1;" edge="1" parent="1" source="cqJHQV9-dRMsiJILZrJO-46" target="cqJHQV9-dRMsiJILZrJO-48">
          <mxGeometry relative="1" as="geometry" />
        </mxCell>
        <mxCell id="cqJHQV9-dRMsiJILZrJO-46" value="前端项目" style="rounded=0;whiteSpace=wrap;html=1;" vertex="1" parent="1">
          <mxGeometry x="30" y="1030" width="120" height="60" as="geometry" />
        </mxCell>
        <mxCell id="cqJHQV9-dRMsiJILZrJO-47" value="" style="edgeStyle=orthogonalEdgeStyle;rounded=0;orthogonalLoop=1;jettySize=auto;html=1;" edge="1" parent="1" source="cqJHQV9-dRMsiJILZrJO-48" target="cqJHQV9-dRMsiJILZrJO-50">
          <mxGeometry relative="1" as="geometry" />
        </mxCell>
        <mxCell id="cqJHQV9-dRMsiJILZrJO-48" value="根据类型定义，生成zod schema" style="rounded=0;whiteSpace=wrap;html=1;" vertex="1" parent="1">
          <mxGeometry x="210" y="1030" width="120" height="60" as="geometry" />
        </mxCell>
        <mxCell id="cqJHQV9-dRMsiJILZrJO-49" value="" style="edgeStyle=orthogonalEdgeStyle;rounded=0;orthogonalLoop=1;jettySize=auto;html=1;" edge="1" parent="1" source="cqJHQV9-dRMsiJILZrJO-50" target="cqJHQV9-dRMsiJILZrJO-54">
          <mxGeometry relative="1" as="geometry" />
        </mxCell>
        <mxCell id="cqJHQV9-dRMsiJILZrJO-50" value="写单元测试" style="rounded=0;whiteSpace=wrap;html=1;" vertex="1" parent="1">
          <mxGeometry x="390" y="1030" width="120" height="60" as="geometry" />
        </mxCell>
        <mxCell id="cqJHQV9-dRMsiJILZrJO-51" style="edgeStyle=orthogonalEdgeStyle;rounded=0;orthogonalLoop=1;jettySize=auto;html=1;exitX=0.5;exitY=0;exitDx=0;exitDy=0;" edge="1" parent="1" source="cqJHQV9-dRMsiJILZrJO-54">
          <mxGeometry relative="1" as="geometry">
            <mxPoint x="645" y="990" as="targetPoint" />
          </mxGeometry>
        </mxCell>
        <mxCell id="cqJHQV9-dRMsiJILZrJO-52" style="edgeStyle=orthogonalEdgeStyle;rounded=0;orthogonalLoop=1;jettySize=auto;html=1;entryX=0.5;entryY=1;entryDx=0;entryDy=0;" edge="1" parent="1" source="cqJHQV9-dRMsiJILZrJO-54" target="cqJHQV9-dRMsiJILZrJO-46">
          <mxGeometry relative="1" as="geometry">
            <Array as="points">
              <mxPoint x="650" y="1150" />
              <mxPoint x="90" y="1150" />
            </Array>
          </mxGeometry>
        </mxCell>
        <mxCell id="cqJHQV9-dRMsiJILZrJO-53" value="修改前端项目类型定义与使用处" style="edgeLabel;html=1;align=center;verticalAlign=middle;resizable=0;points=[];" vertex="1" connectable="0" parent="cqJHQV9-dRMsiJILZrJO-52">
          <mxGeometry x="-0.16" y="1" relative="1" as="geometry">
            <mxPoint x="-49" y="-1" as="offset" />
          </mxGeometry>
        </mxCell>
        <mxCell id="cqJHQV9-dRMsiJILZrJO-54" value="验证返回值是否符合zod schema" style="rounded=0;whiteSpace=wrap;html=1;" vertex="1" parent="1">
          <mxGeometry x="560" y="1030" width="170" height="60" as="geometry" />
        </mxCell>
        <mxCell id="cqJHQV9-dRMsiJILZrJO-56" value="自动生成类型定义、service、zode schema、单元测试文件" style="rounded=0;whiteSpace=wrap;html=1;" vertex="1" parent="1">
          <mxGeometry x="70" y="930" width="120" height="60" as="geometry" />
        </mxCell>
      </root>
    </mxGraphModel>
  </diagram>
</mxfile>
